<svg xmlns="http://www.w3.org/2000/svg" viewBox="0 0 320 100" fill="none">
  <!-- Globe dotted sphere (light blue dots) -->
  <circle cx="50" cy="50" r="38" fill="none"/>
  <!-- Outer dots forming globe -->
  <g fill="#a8c8e8" opacity="0.7">
    <!-- top arc -->
    <circle cx="50" cy="13" r="2.2"/><circle cx="62" cy="15" r="2"/><circle cx="38" cy="15" r="2"/>
    <circle cx="72" cy="21" r="1.8"/><circle cx="28" cy="21" r="1.8"/>
    <circle cx="80" cy="30" r="1.8"/><circle cx="20" cy="30" r="1.8"/>
    <circle cx="85" cy="40" r="1.8"/><circle cx="15" cy="40" r="1.8"/>
    <circle cx="87" cy="50" r="1.8"/><circle cx="13" cy="50" r="1.8"/>
    <circle cx="85" cy="60" r="1.8"/><circle cx="15" cy="60" r="1.8"/>
    <circle cx="80" cy="70" r="1.8"/><circle cx="20" cy="70" r="1.8"/>
    <circle cx="72" cy="79" r="1.8"/><circle cx="28" cy="79" r="1.8"/>
    <circle cx="62" cy="85" r="2"/><circle cx="38" cy="85" r="2"/>
    <circle cx="50" cy="87" r="2.2"/>
    <!-- mid dots -->
    <circle cx="67" cy="18" r="1.6"/><circle cx="33" cy="18" r="1.6"/>
    <circle cx="76" cy="26" r="1.6"/><circle cx="24" cy="26" r="1.6"/>
    <circle cx="83" cy="35" r="1.6"/><circle cx="17" cy="35" r="1.6"/>
    <circle cx="83" cy="65" r="1.6"/><circle cx="17" cy="65" r="1.6"/>
    <circle cx="76" cy="74" r="1.6"/><circle cx="24" cy="74" r="1.6"/>
    <circle cx="67" cy="82" r="1.6"/><circle cx="33" cy="82" r="1.6"/>
  </g>

  <!-- Badge/flower shape (dark navy) -->
  <path d="M50 20
    C54 20 57 17 61 18
    C65 19 66 23 70 25
    C74 27 78 26 80 30
    C82 34 80 38 82 42
    C84 46 88 48 88 52
    C88 56 84 58 82 62
    C80 66 82 70 80 74
    C78 78 74 77 70 79
    C66 81 65 85 61 86
    C57 87 54 84 50 84
    C46 84 43 87 39 86
    C35 85 34 81 30 79
    C26 77 22 78 20 74
    C18 70 20 66 18 62
    C16 58 12 56 12 52
    C12 48 16 46 18 42
    C20 38 18 34 20 30
    C22 26 26 27 30 25
    C34 23 35 19 39 18
    C43 17 46 20 50 20Z"
    fill="#0d2f5d"/>

  <!-- Capsule/pill icon (white) -->
  <rect x="34" y="46" width="32" height="13" rx="6.5" fill="white"/>
  <rect x="34" y="46" width="16" height="13" rx="6.5" fill="rgba(255,255,255,0.45)"/>
  <!-- pill divider line -->
  <line x1="50" y1="47" x2="50" y2="58" stroke="#0d2f5d" stroke-width="1.5" opacity="0.3"/>

  <!-- Brand name -->
  <text x="102" y="48" font-family="'Segoe UI', system-ui, sans-serif" font-size="26" font-weight="800" fill="#0d2f5d" letter-spacing="-0.5">Kaira Cure</text>
  <!-- Tagline -->
  <text x="103" y="66" font-family="'Courier New', monospace" font-size="11" fill="#4a7ab5" letter-spacing="1">Personalized Medical Travel</text>
</svg>
